<svg xmlns="http://www.w3.org/2000/svg" xmlns:xlink="http://www.w3.org/1999/xlink" viewBox="0 0 237.1 393.76"><defs><style>.cls-1{fill:none;}.cls-2{isolation:isolate;}.cls-3{fill:#150a20;}.cls-4{fill:#0e0717;}.cls-5{fill:#170b24;}.cls-6{fill:#848484;}.cls-7{fill:#5946bc;}.cls-8{fill:#1b0d2a;}.cls-9{fill:#392373;}.cls-10{fill:#40347c;}.cls-11{clip-path:url(#clip-path);}.cls-12{fill:#3b2e7c;}.cls-13{fill:#392d78;}.cls-14{fill:#372b75;}.cls-15{fill:#3f3185;}.cls-16{clip-path:url(#clip-path-2);}.cls-17{fill:#2e2462;}.cls-18{fill:#302666;}.cls-19{fill:#322769;}.cls-20{fill:#34296d;}.cls-21{fill:#352a71;}.cls-22{fill:#4e3da4;}.cls-23{fill:#2d2460;}.cls-24{clip-path:url(#clip-path-3);}.cls-25{clip-path:url(#clip-path-4);}.cls-26{clip-path:url(#clip-path-5);}.cls-27{clip-path:url(#clip-path-6);}.cls-28{clip-path:url(#clip-path-7);}.cls-29{clip-path:url(#clip-path-8);}</style><clipPath id="clip-path"><path class="cls-1" d="M18.46,42.6l2.73,1.49a1.53,1.53,0,0,0-1-.16L17.5,42.44A1.55,1.55,0,0,1,18.46,42.6Z"/></clipPath><clipPath id="clip-path-2"><path class="cls-1" d="M14.78,48.28,12,46.79a1.64,1.64,0,0,1-.81-1.49,2.27,2.27,0,0,1,1.84-2.24l2.73,1.49A2.27,2.27,0,0,0,14,46.79,1.62,1.62,0,0,0,14.78,48.28Z"/></clipPath><clipPath id="clip-path-3"><path class="cls-1" d="M72.27,73.71,75,75.2a1.49,1.49,0,0,0-1-.17l-2.73-1.49A1.51,1.51,0,0,1,72.27,73.71Z"/></clipPath><clipPath id="clip-path-4"><path class="cls-1" d="M68.6,79.39,65.86,77.9A1.65,1.65,0,0,1,65,76.41a2.29,2.29,0,0,1,1.85-2.25l2.73,1.49a2.29,2.29,0,0,0-1.84,2.25A1.64,1.64,0,0,0,68.6,79.39Z"/></clipPath><clipPath id="clip-path-5"><path class="cls-1" d="M126.09,104.75l2.74,1.49a1.49,1.49,0,0,0-1-.17l-2.73-1.49A1.52,1.52,0,0,1,126.09,104.75Z"/></clipPath><clipPath id="clip-path-6"><path class="cls-1" d="M122.41,110.42l-2.73-1.48a1.67,1.67,0,0,1-.82-1.5,2.27,2.27,0,0,1,1.84-2.23l2.73,1.48a2.28,2.28,0,0,0-1.83,2.24A1.61,1.61,0,0,0,122.41,110.42Z"/></clipPath><clipPath id="clip-path-7"><path class="cls-1" d="M179.91,135.79l2.73,1.49a1.51,1.51,0,0,0-.95-.17L179,135.62A1.52,1.52,0,0,1,179.91,135.79Z"/></clipPath><clipPath id="clip-path-8"><path class="cls-1" d="M176.24,141.47,173.5,140a1.67,1.67,0,0,1-.82-1.51,2.28,2.28,0,0,1,1.84-2.23l2.73,1.48a2.29,2.29,0,0,0-1.83,2.24A1.64,1.64,0,0,0,176.24,141.47Z"/></clipPath></defs><title>Billboard</title><g id="Layer_2" data-name="Layer 2"><g id="Layer_2-2" data-name="Layer 2"><g class="cls-2"><polygon class="cls-3" points="202.69 374.58 202.68 377.84 175.29 393.76 175.3 390.5 202.69 374.58"/><polygon class="cls-4" points="175.3 390.5 175.29 393.76 147.72 377.84 147.73 374.58 175.3 390.5"/><polygon class="cls-5" points="202.69 374.58 175.3 390.5 147.73 374.58 175.12 358.66 202.69 374.58"/></g><g class="cls-2"><polygon class="cls-3" points="69.04 302.08 69.03 305.35 41.64 321.26 41.65 318 69.04 302.08"/><polygon class="cls-4" points="41.65 318 41.64 321.26 14.07 305.35 14.08 302.08 41.65 318"/><polygon class="cls-5" points="69.04 302.08 41.65 318 14.08 302.08 41.47 286.17 69.04 302.08"/></g><g class="cls-2"><path class="cls-6" d="M49.18,121.62l-.52,181a3.64,3.64,0,0,1-2.14,3,11.44,11.44,0,0,1-10.41,0,3.69,3.69,0,0,1-2.18-3l.52-181a3.67,3.67,0,0,0,2.17,3,11.49,11.49,0,0,0,10.42,0A3.67,3.67,0,0,0,49.18,121.62Z"/><path class="cls-6" d="M47,118.58c2.89,1.67,2.9,4.37,0,6a11.49,11.49,0,0,1-10.42,0c-2.89-1.67-2.9-4.38,0-6A11.47,11.47,0,0,1,47,118.58Z"/></g><g class="cls-2"><path class="cls-6" d="M183.05,195.06l-.52,181a3.64,3.64,0,0,1-2.14,3A11.49,11.49,0,0,1,170,379a3.69,3.69,0,0,1-2.17-3l.52-181a3.67,3.67,0,0,0,2.17,3,11.49,11.49,0,0,0,10.42,0A3.68,3.68,0,0,0,183.05,195.06Z"/><path class="cls-6" d="M180.87,192c2.89,1.67,2.9,4.37,0,6a11.49,11.49,0,0,1-10.42,0c-2.89-1.67-2.9-4.37,0-6A11.44,11.44,0,0,1,180.87,192Z"/></g><polygon class="cls-7" points="237.1 262.09 221.83 270.89 21.26 155.36 36.79 146.43 237.1 262.09"/><path class="cls-8" d="M235.76,261.58a.49.49,0,0,1-.5-.49l0-9.08L36.46,137.52l0,8.49a.5.5,0,0,1-.5.5h0a.5.5,0,0,1-.5-.5l0-9.36a.5.5,0,0,1,.25-.43.52.52,0,0,1,.5,0L236,251.29a.48.48,0,0,1,.25.43l0,9.36a.5.5,0,0,1-.5.5Z"/><path class="cls-8" d="M227.07,256.58a.51.51,0,0,1-.5-.5l0-9.36a.5.5,0,1,1,1,0l0,9.36a.49.49,0,0,1-.49.5Z"/><path class="cls-8" d="M218.39,251.58a.5.5,0,0,1-.5-.5l0-9.36a.5.5,0,0,1,.5-.5h0a.49.49,0,0,1,.5.49l0,9.37a.5.5,0,0,1-.5.5Z"/><path class="cls-8" d="M209.7,246.57a.5.5,0,0,1-.5-.49l0-9.37a.5.5,0,0,1,.49-.5h0a.5.5,0,0,1,.5.5l0,9.36a.49.49,0,0,1-.49.5Z"/><path class="cls-8" d="M201,241.57a.5.5,0,0,1-.5-.5l-.05-9.36a.5.5,0,0,1,.5-.5h0a.5.5,0,0,1,.5.5l.05,9.36a.5.5,0,0,1-.5.5Z"/><path class="cls-8" d="M192.33,236.57a.5.5,0,0,1-.5-.5l0-9.36a.49.49,0,0,1,.49-.5h0a.5.5,0,0,1,.5.49l0,9.37a.5.5,0,0,1-.49.5Z"/><path class="cls-8" d="M183.65,231.57a.5.5,0,0,1-.5-.5l-.05-9.36a.5.5,0,0,1,.5-.51h0a.5.5,0,0,1,.5.5l.05,9.36a.51.51,0,0,1-.5.51Z"/><path class="cls-8" d="M175,226.56a.5.5,0,0,1-.5-.5l0-9.36a.5.5,0,0,1,.49-.5h0a.5.5,0,0,1,.5.5l0,9.36a.49.49,0,0,1-.49.5Z"/><path class="cls-8" d="M166.28,221.56a.5.5,0,0,1-.5-.5l-.05-9.36a.5.5,0,0,1,.5-.5h0a.49.49,0,0,1,.5.49l.05,9.37a.5.5,0,0,1-.5.5Z"/><path class="cls-8" d="M157.59,216.56a.51.51,0,0,1-.5-.5l0-9.36a.5.5,0,0,1,.49-.51h0a.51.51,0,0,1,.5.5l0,9.36a.51.51,0,0,1-.49.51Z"/><path class="cls-8" d="M148.91,211.55a.5.5,0,0,1-.5-.5l0-9.36a.5.5,0,0,1,.5-.5.51.51,0,0,1,.5.5l0,9.36a.5.5,0,0,1-.5.5Z"/><path class="cls-8" d="M140.22,206.55a.5.5,0,0,1-.5-.5l0-9.36a.49.49,0,0,1,.49-.5h0a.5.5,0,0,1,.5.49l0,9.37a.5.5,0,0,1-.49.5Z"/><path class="cls-8" d="M131.54,201.55a.5.5,0,0,1-.5-.5l0-9.36a.51.51,0,0,1,.5-.51h0a.5.5,0,0,1,.5.5l0,9.36a.51.51,0,0,1-.5.51Z"/><path class="cls-8" d="M122.85,196.54a.5.5,0,0,1-.5-.49l0-9.37a.5.5,0,0,1,.49-.5h0a.5.5,0,0,1,.5.5l0,9.36a.5.5,0,0,1-.5.5Z"/><path class="cls-8" d="M114.17,191.54a.5.5,0,0,1-.5-.5l0-9.36a.5.5,0,0,1,.5-.5h0a.49.49,0,0,1,.5.49l0,9.37a.51.51,0,0,1-.5.5Z"/><path class="cls-8" d="M105.48,186.54a.51.51,0,0,1-.5-.5l0-9.36a.5.5,0,1,1,1,0l0,9.36a.51.51,0,0,1-.5.51Z"/><path class="cls-8" d="M96.8,181.53a.49.49,0,0,1-.5-.49l0-9.37a.5.5,0,0,1,.5-.5h0a.5.5,0,0,1,.5.5l0,9.36a.5.5,0,0,1-.5.5Z"/><path class="cls-8" d="M88.11,176.53a.5.5,0,0,1-.5-.5l0-9.36a.5.5,0,0,1,.5-.5h0a.5.5,0,0,1,.5.5l0,9.36a.5.5,0,0,1-.5.5Z"/><path class="cls-8" d="M79.43,171.53a.5.5,0,0,1-.5-.5l-.05-9.36a.51.51,0,0,1,.5-.51h0a.51.51,0,0,1,.5.5l.05,9.36a.51.51,0,0,1-.5.51Z"/><path class="cls-8" d="M70.74,166.52a.5.5,0,0,1-.5-.49l0-9.37a.51.51,0,0,1,.5-.5h0a.5.5,0,0,1,.5.5l0,9.36a.5.5,0,0,1-.5.5Z"/><path class="cls-8" d="M62.06,161.52a.5.5,0,0,1-.5-.5l-.05-9.36a.5.5,0,0,1,.5-.5h0a.5.5,0,0,1,.5.5l.05,9.36a.51.51,0,0,1-.5.5Z"/><path class="cls-8" d="M53.37,156.52a.51.51,0,0,1-.5-.5l0-9.36a.52.52,0,0,1,.5-.51h0a.5.5,0,0,1,.5.5l0,9.36a.5.5,0,0,1-.5.51Z"/><path class="cls-8" d="M44.69,151.51a.49.49,0,0,1-.5-.49l0-9.37a.5.5,0,0,1,.5-.5h0a.5.5,0,0,1,.5.5l0,9.36a.5.5,0,0,1-.5.5Z"/><polygon class="cls-9" points="21.47 155.2 221.83 270.89 223.44 117.56 21.47 0.94 21.47 155.2"/><polygon class="cls-10" points="223.44 117.56 224.97 116.58 222.85 270.3 221.83 270.89 223.44 117.56"/><polygon class="cls-7" points="224.97 116.58 23.1 0 21.47 0.94 223.44 117.56 224.97 116.58"/><polygon class="cls-9" points="15.53 158.67 215.89 274.36 217.5 121.04 15.53 4.42 15.53 158.67"/><polygon class="cls-10" points="217.5 121.04 219.03 120.06 216.91 273.78 215.89 274.36 217.5 121.04"/><polygon class="cls-7" points="219.03 120.06 17.16 3.47 15.53 4.42 217.5 121.04 219.03 120.06"/><polygon class="cls-7" points="215.89 274.36 200.57 283.13 0 167.6 15.53 158.67 215.89 274.36"/><path class="cls-8" d="M200.77,283a.5.5,0,0,1-.5-.5l0-9.07L1.47,158.91l.05,8.49a.51.51,0,0,1-.5.51H1a.5.5,0,0,1-.5-.5l-.05-9.36a.5.5,0,0,1,.75-.44L201,272.69a.49.49,0,0,1,.25.43l0,9.36a.5.5,0,0,1-.49.5Z"/><path class="cls-8" d="M192.09,278a.5.5,0,0,1-.5-.5l-.05-9.36a.5.5,0,0,1,.5-.5h0a.49.49,0,0,1,.5.49l.05,9.37a.5.5,0,0,1-.5.5Z"/><path class="cls-8" d="M183.4,273a.5.5,0,0,1-.5-.49l0-9.37a.5.5,0,0,1,.49-.5h0a.5.5,0,0,1,.5.5l0,9.36a.49.49,0,0,1-.49.5Z"/><path class="cls-8" d="M174.72,268a.5.5,0,0,1-.5-.5l-.05-9.36a.5.5,0,0,1,.5-.5h0a.5.5,0,0,1,.5.5l.05,9.36a.5.5,0,0,1-.5.5Z"/><path class="cls-8" d="M166,263a.5.5,0,0,1-.5-.5l0-9.36a.49.49,0,0,1,.49-.5.5.5,0,0,1,.51.49l0,9.37a.5.5,0,0,1-.49.5Z"/><path class="cls-8" d="M157.35,258a.49.49,0,0,1-.5-.49l0-9.37a.5.5,0,0,1,.5-.5h0a.5.5,0,0,1,.5.5l0,9.36a.5.5,0,0,1-.5.5Z"/><path class="cls-8" d="M148.66,253a.5.5,0,0,1-.5-.5l0-9.36a.5.5,0,0,1,.49-.5h0a.5.5,0,0,1,.5.5l0,9.36a.49.49,0,0,1-.49.5Z"/><path class="cls-8" d="M140,248a.5.5,0,0,1-.5-.5l0-9.36a.5.5,0,0,1,.5-.5h0a.49.49,0,0,1,.5.49l0,9.37a.5.5,0,0,1-.5.5Z"/><path class="cls-8" d="M131.29,243a.51.51,0,0,1-.5-.5l0-9.36a.5.5,0,0,1,.49-.51h0a.51.51,0,0,1,.5.5l0,9.36a.51.51,0,0,1-.49.51Z"/><path class="cls-8" d="M122.61,238a.5.5,0,0,1-.5-.5l0-9.36a.5.5,0,0,1,.5-.5.47.47,0,0,1,.5.5l0,9.36a.5.5,0,0,1-.5.5Z"/><path class="cls-8" d="M113.92,233a.5.5,0,0,1-.5-.5l0-9.36a.49.49,0,0,1,.49-.5h0a.5.5,0,0,1,.5.49l0,9.37a.5.5,0,0,1-.49.5Z"/><path class="cls-8" d="M105.24,228a.5.5,0,0,1-.5-.5l0-9.36a.5.5,0,0,1,.5-.51h0a.5.5,0,0,1,.5.5l0,9.36a.51.51,0,0,1-.5.51Z"/><path class="cls-8" d="M96.55,222.94a.5.5,0,0,1-.5-.5l0-9.36a.49.49,0,0,1,.49-.5h0a.51.51,0,0,1,.5.5l0,9.36a.49.49,0,0,1-.49.5Z"/><path class="cls-8" d="M87.87,217.94a.5.5,0,0,1-.5-.5l-.05-9.36a.5.5,0,0,1,.5-.5h0a.49.49,0,0,1,.5.49l.05,9.37a.5.5,0,0,1-.5.5Z"/><path class="cls-8" d="M79.18,212.94a.51.51,0,0,1-.5-.5l0-9.36a.5.5,0,0,1,.49-.51h0a.51.51,0,0,1,.5.5l0,9.36a.51.51,0,0,1-.5.51Z"/><path class="cls-8" d="M70.5,207.93a.49.49,0,0,1-.5-.49l0-9.37a.5.5,0,0,1,.5-.5h0a.5.5,0,0,1,.5.5l0,9.36a.5.5,0,0,1-.5.5Z"/><path class="cls-8" d="M61.81,202.93a.5.5,0,0,1-.5-.5l0-9.36a.49.49,0,0,1,.49-.5h0a.51.51,0,0,1,.5.49l0,9.37a.5.5,0,0,1-.5.5Z"/><path class="cls-8" d="M53.13,197.93a.5.5,0,0,1-.5-.5l-.05-9.36a.51.51,0,0,1,.5-.51h0a.51.51,0,0,1,.5.5l.05,9.36a.52.52,0,0,1-.5.51Z"/><path class="cls-8" d="M44.44,192.92a.5.5,0,0,1-.5-.49l0-9.37a.51.51,0,0,1,.5-.5h0a.5.5,0,0,1,.5.5l0,9.36a.5.5,0,0,1-.5.5Z"/><path class="cls-8" d="M35.76,187.92a.5.5,0,0,1-.5-.5l0-9.36a.5.5,0,0,1,.5-.5h0a.5.5,0,0,1,.5.49l0,9.37a.51.51,0,0,1-.5.5Z"/><path class="cls-8" d="M27.07,182.92a.5.5,0,0,1-.5-.5l-.05-9.36a.52.52,0,0,1,.5-.51h0a.5.5,0,0,1,.5.5l.05,9.36a.5.5,0,0,1-.5.51Z"/><path class="cls-8" d="M18.39,177.91a.49.49,0,0,1-.5-.49l-.05-9.37a.5.5,0,0,1,.5-.5h0a.5.5,0,0,1,.5.5l.05,9.36a.5.5,0,0,1-.5.5Z"/><path class="cls-8" d="M9.7,172.91a.5.5,0,0,1-.5-.5l0-9.36a.5.5,0,0,1,.5-.5h0a.5.5,0,0,1,.5.5l0,9.36a.5.5,0,0,1-.5.5Z"/><g class="cls-2"><g class="cls-2"><g class="cls-11"><g class="cls-2"><path class="cls-12" d="M20.23,43.93,17.5,42.44a1.59,1.59,0,0,1,.62,0L20.85,44a1.59,1.59,0,0,0-.62,0"/><path class="cls-13" d="M20.85,44l-2.73-1.49a1.36,1.36,0,0,1,.28.11l2.74,1.48a1.42,1.42,0,0,0-.29-.1"/><path class="cls-14" d="M21.14,44.06,18.4,42.58l.06,0,2.73,1.49-.05,0"/></g></g></g><polygon class="cls-15" points="15.8 44.55 13.07 43.06 17.5 42.44 20.23 43.93 15.8 44.55"/><g class="cls-2"><g class="cls-16"><g class="cls-2"><path class="cls-17" d="M14.78,48.28,12,46.79a1.64,1.64,0,0,1-.81-1.49,2.29,2.29,0,0,1,.14-.78L14.11,46a2.25,2.25,0,0,0-.14.78,1.62,1.62,0,0,0,.81,1.49"/><path class="cls-18" d="M14.11,46l-2.74-1.49a2.92,2.92,0,0,1,.14-.31l2.74,1.49a1.73,1.73,0,0,0-.14.31"/><path class="cls-19" d="M14.25,45.7l-2.74-1.49.15-.24,2.74,1.49a1,1,0,0,0-.15.24"/><path class="cls-20" d="M14.4,45.46,11.66,44a1.2,1.2,0,0,1,.17-.21l2.73,1.49a1.16,1.16,0,0,0-.16.21"/><path class="cls-21" d="M14.56,45.25l-2.73-1.49a1.62,1.62,0,0,1,.18-.19l2.74,1.49a1.7,1.7,0,0,0-.19.19"/><path class="cls-14" d="M14.75,45.06,12,43.57l.22-.18L15,44.88a1.24,1.24,0,0,0-.22.18"/><path class="cls-13" d="M15,44.88l-2.74-1.49.3-.17,2.74,1.49a2.14,2.14,0,0,0-.3.17"/><path class="cls-12" d="M15.27,44.71l-2.74-1.49a2,2,0,0,1,.54-.16l2.73,1.49a1.7,1.7,0,0,0-.53.16"/></g></g></g><path class="cls-22" d="M20.23,43.93A1.59,1.59,0,0,1,22,45.62a2.24,2.24,0,0,1-1.8,2.19l-4.51.63A1.54,1.54,0,0,1,14,46.79a2.27,2.27,0,0,1,1.83-2.24Z"/></g><g class="cls-2"><polygon class="cls-15" points="18.61 20.15 17.25 19.41 36.28 16.73 37.65 17.47 18.61 20.15"/><polygon class="cls-23" points="15.78 44.09 14.42 43.35 14.45 22.81 15.82 23.55 15.78 44.09"/><polygon class="cls-15" points="15.83 20.54 14.46 19.8 17.25 19.41 18.61 20.15 15.83 20.54"/><polygon class="cls-23" points="15.82 23.55 14.45 22.81 14.46 19.8 15.83 20.54 15.82 23.55"/><polygon class="cls-22" points="37.65 17.47 37.64 20.48 18.61 23.16 18.57 43.7 15.78 44.09 15.82 23.55 15.83 20.54 18.61 20.15 37.65 17.47"/></g><g class="cls-2"><g class="cls-2"><g class="cls-24"><g class="cls-2"><path class="cls-12" d="M74.05,75l-2.73-1.49a1.55,1.55,0,0,1,.61,0l2.74,1.49a1.59,1.59,0,0,0-.62,0"/><path class="cls-13" d="M74.67,75.06l-2.74-1.49a1.45,1.45,0,0,1,.29.11L75,75.17a1.36,1.36,0,0,0-.28-.11"/><path class="cls-14" d="M75,75.17l-2.73-1.49,0,0L75,75.2l-.06,0"/></g></g></g><polygon class="cls-15" points="69.62 75.65 66.89 74.16 71.32 73.54 74.05 75.03 69.62 75.65"/><g class="cls-2"><g class="cls-25"><g class="cls-2"><path class="cls-17" d="M68.6,79.39,65.86,77.9A1.65,1.65,0,0,1,65,76.41a2.29,2.29,0,0,1,.14-.78l2.74,1.49a2.25,2.25,0,0,0-.14.78,1.64,1.64,0,0,0,.82,1.49"/><path class="cls-18" d="M67.92,77.12l-2.74-1.49a2.92,2.92,0,0,1,.14-.31l2.74,1.49a1.73,1.73,0,0,0-.14.31"/><path class="cls-19" d="M68.06,76.81l-2.74-1.49.15-.24,2.74,1.48a1.28,1.28,0,0,0-.15.25"/><path class="cls-20" d="M68.21,76.56l-2.74-1.48a1.2,1.2,0,0,1,.17-.21l2.73,1.48-.16.21"/><path class="cls-21" d="M68.37,76.35l-2.73-1.48a1.14,1.14,0,0,1,.19-.19l2.73,1.48-.19.19"/><path class="cls-14" d="M68.56,76.16l-2.73-1.48a1.24,1.24,0,0,1,.22-.18L68.79,76l-.23.17"/><path class="cls-13" d="M68.79,76,66.05,74.5a1.52,1.52,0,0,1,.3-.17l2.73,1.48a1.75,1.75,0,0,0-.29.18"/><path class="cls-12" d="M69.08,75.81l-2.73-1.48a2,2,0,0,1,.54-.17l2.73,1.49a2.09,2.09,0,0,0-.54.16"/></g></g></g><path class="cls-22" d="M74.05,75a1.59,1.59,0,0,1,1.8,1.69,2.24,2.24,0,0,1-1.8,2.2l-4.51.63a1.55,1.55,0,0,1-1.76-1.65,2.29,2.29,0,0,1,1.84-2.25Z"/></g><g class="cls-2"><polygon class="cls-15" points="72.44 51.25 71.07 50.51 90.1 47.83 91.47 48.58 72.44 51.25"/><polygon class="cls-23" points="69.6 75.2 68.24 74.46 68.27 53.92 69.64 54.66 69.6 75.2"/><polygon class="cls-15" points="69.65 51.65 68.28 50.9 71.07 50.51 72.44 51.25 69.65 51.65"/><polygon class="cls-23" points="69.64 54.66 68.27 53.92 68.28 50.9 69.65 51.65 69.64 54.66"/><polygon class="cls-22" points="91.47 48.58 91.46 51.6 72.43 54.27 72.39 74.81 69.6 75.2 69.64 54.66 69.65 51.65 72.44 51.25 91.47 48.58"/></g><g class="cls-2"><g class="cls-2"><g class="cls-26"><g class="cls-2"><path class="cls-12" d="M127.87,106.07l-2.73-1.49a1.55,1.55,0,0,1,.61,0l2.74,1.49a1.6,1.6,0,0,0-.62,0"/><path class="cls-13" d="M128.49,106.1l-2.74-1.49a1.45,1.45,0,0,1,.29.11l2.73,1.49a1.36,1.36,0,0,0-.28-.11"/><path class="cls-14" d="M128.77,106.21,126,104.72l0,0,2.74,1.49-.06,0"/></g></g></g><polygon class="cls-15" points="123.43 106.69 120.7 105.21 125.14 104.58 127.87 106.07 123.43 106.69"/><g class="cls-2"><g class="cls-27"><g class="cls-2"><path class="cls-17" d="M122.41,110.42l-2.73-1.48a1.67,1.67,0,0,1-.82-1.5,2.29,2.29,0,0,1,.14-.78l2.74,1.49a2.29,2.29,0,0,0-.14.78,1.61,1.61,0,0,0,.81,1.49"/><path class="cls-18" d="M121.74,108.15,119,106.66a2.75,2.75,0,0,1,.14-.3l2.74,1.48a2.12,2.12,0,0,0-.14.31"/><path class="cls-19" d="M121.88,107.84l-2.74-1.48.15-.25L122,107.6a1.58,1.58,0,0,0-.15.24"/><path class="cls-20" d="M122,107.6l-2.74-1.49.17-.21,2.73,1.49-.16.21"/><path class="cls-21" d="M122.19,107.39l-2.73-1.49.18-.19,2.74,1.49-.19.19"/><path class="cls-14" d="M122.38,107.2l-2.74-1.49.22-.17L122.6,107a1.84,1.84,0,0,0-.22.17"/><path class="cls-13" d="M122.6,107l-2.74-1.49a2.28,2.28,0,0,1,.3-.17l2.74,1.48a1.83,1.83,0,0,0-.3.18"/><path class="cls-12" d="M122.9,106.85l-2.74-1.48a1.68,1.68,0,0,1,.54-.16l2.73,1.48a2.49,2.49,0,0,0-.53.16"/></g></g></g><path class="cls-22" d="M127.87,106.07a1.58,1.58,0,0,1,1.79,1.68,2.23,2.23,0,0,1-1.79,2.2l-4.52.64a1.55,1.55,0,0,1-1.75-1.66,2.28,2.28,0,0,1,1.83-2.24Z"/></g><g class="cls-2"><polygon class="cls-15" points="126.25 82.29 124.89 81.55 143.92 78.88 145.29 79.62 126.25 82.29"/><polygon class="cls-23" points="123.42 106.24 122.05 105.49 122.09 84.95 123.45 85.69 123.42 106.24"/><polygon class="cls-15" points="123.46 82.69 122.09 81.94 124.89 81.55 126.25 82.29 123.46 82.69"/><polygon class="cls-23" points="123.45 85.69 122.09 84.95 122.09 81.94 123.46 82.69 123.45 85.69"/><polygon class="cls-22" points="145.29 79.62 145.28 82.63 126.25 85.3 126.21 105.84 123.42 106.24 123.45 85.69 123.46 82.69 126.25 82.29 145.29 79.62"/></g><g class="cls-2"><g class="cls-2"><g class="cls-28"><g class="cls-2"><path class="cls-12" d="M181.69,137.11,179,135.62a1.77,1.77,0,0,1,.61,0l2.74,1.49a1.6,1.6,0,0,0-.62,0"/><path class="cls-13" d="M182.31,137.14l-2.74-1.49.28.11,2.74,1.49a1.62,1.62,0,0,0-.28-.11"/><path class="cls-14" d="M182.59,137.25l-2.74-1.49.06,0,2.73,1.49,0,0"/></g></g></g><polygon class="cls-15" points="177.25 137.74 174.52 136.25 178.96 135.62 181.69 137.11 177.25 137.74"/><g class="cls-2"><g class="cls-29"><g class="cls-2"><path class="cls-17" d="M176.24,141.47,173.5,140a1.67,1.67,0,0,1-.82-1.51,2.28,2.28,0,0,1,.14-.77l2.74,1.49a2.23,2.23,0,0,0-.14.77,1.64,1.64,0,0,0,.82,1.5"/><path class="cls-18" d="M175.56,139.2l-2.74-1.49a2.92,2.92,0,0,1,.14-.31l2.74,1.49a1.73,1.73,0,0,0-.14.31"/><path class="cls-19" d="M175.7,138.89,173,137.4c0-.08.1-.17.15-.24l2.74,1.48a1.28,1.28,0,0,0-.15.25"/><path class="cls-20" d="M175.85,138.64l-2.74-1.48a1.2,1.2,0,0,1,.17-.21l2.73,1.48-.16.21"/><path class="cls-21" d="M176,138.43,173.28,137a1.14,1.14,0,0,1,.19-.19l2.73,1.48-.19.19"/><path class="cls-14" d="M176.2,138.24l-2.73-1.48a1.24,1.24,0,0,1,.22-.18l2.73,1.49-.22.17"/><path class="cls-13" d="M176.42,138.07l-2.73-1.49a1.46,1.46,0,0,1,.3-.17l2.73,1.49a1.52,1.52,0,0,0-.3.17"/><path class="cls-12" d="M176.72,137.9,174,136.41a1.63,1.63,0,0,1,.53-.16l2.73,1.48a2,2,0,0,0-.53.17"/></g></g></g><path class="cls-22" d="M181.69,137.11a1.58,1.58,0,0,1,1.79,1.69,2.24,2.24,0,0,1-1.79,2.2l-4.51.64a1.56,1.56,0,0,1-1.76-1.67,2.29,2.29,0,0,1,1.83-2.24Z"/></g><g class="cls-2"><polygon class="cls-15" points="180.07 113.33 178.71 112.59 197.74 109.92 199.11 110.66 180.07 113.33"/><polygon class="cls-23" points="177.24 137.29 175.87 136.54 175.91 116 177.27 116.75 177.24 137.29"/><polygon class="cls-15" points="177.28 113.73 175.91 112.98 178.71 112.59 180.07 113.33 177.28 113.73"/><polygon class="cls-23" points="177.27 116.75 175.91 116 175.91 112.98 177.28 113.73 177.27 116.75"/><polygon class="cls-22" points="199.11 110.66 199.1 113.68 180.07 116.35 180.03 136.9 177.24 137.29 177.27 116.75 177.28 113.73 180.07 113.33 199.11 110.66"/></g></g></g></svg>