<svg xmlns="http://www.w3.org/2000/svg" viewBox="0 0 4108.77 2428.86"><defs><style>.cls-1{fill:#392373;}.cls-1,.cls-2{stroke:#1b0d2a;stroke-miterlimit:10;}.cls-2{fill:#40347c;}</style></defs><title>grid3d</title><g id="Layer_2" data-name="Layer 2"><g id="Layer_3" data-name="Layer 3"><polygon class="cls-1" points="1 1242.66 2054.39 57.04 4107.77 1242.66 2054.39 2428.29 1 1242.66"/><line class="cls-1" x1="2038.09" y1="2418.88" x2="4091.48" y2="1233.25"/><line class="cls-1" x1="2021.79" y1="2409.47" x2="4075.18" y2="1223.84"/><line class="cls-1" x1="2005.5" y1="2400.06" x2="4058.88" y2="1214.43"/><line class="cls-1" x1="1989.2" y1="2390.65" x2="4042.59" y2="1205.02"/><line class="cls-1" x1="1972.9" y1="2381.24" x2="4026.29" y2="1195.61"/><line class="cls-1" x1="1956.61" y1="2371.83" x2="4009.99" y2="1186.2"/><line class="cls-1" x1="1940.31" y1="2362.42" x2="3993.7" y2="1176.79"/><line class="cls-1" x1="1924.01" y1="2353.01" x2="3977.4" y2="1167.38"/><line class="cls-1" x1="1907.72" y1="2343.6" x2="3961.1" y2="1157.97"/><line class="cls-1" x1="1891.42" y1="2334.19" x2="3944.81" y2="1148.56"/><line class="cls-1" x1="1875.12" y1="2324.78" x2="3928.51" y2="1139.15"/><line class="cls-1" x1="1858.83" y1="2315.37" x2="3912.21" y2="1129.74"/><line class="cls-1" x1="1842.53" y1="2305.96" x2="3895.92" y2="1120.33"/><line class="cls-1" x1="1826.23" y1="2296.55" x2="3879.62" y2="1110.92"/><line class="cls-1" x1="1809.94" y1="2287.14" x2="3863.32" y2="1101.52"/><line class="cls-1" x1="1793.64" y1="2277.73" x2="3847.03" y2="1092.11"/><line class="cls-1" x1="1777.34" y1="2268.32" x2="3830.73" y2="1082.7"/><line class="cls-1" x1="1761.05" y1="2258.91" x2="3814.43" y2="1073.29"/><line class="cls-1" x1="1744.75" y1="2249.5" x2="3798.14" y2="1063.88"/><line class="cls-1" x1="1728.45" y1="2240.09" x2="3781.84" y2="1054.47"/><line class="cls-1" x1="1712.16" y1="2230.68" x2="3765.54" y2="1045.06"/><line class="cls-1" x1="1695.86" y1="2221.27" x2="3749.25" y2="1035.65"/><line class="cls-1" x1="1679.56" y1="2211.86" x2="3732.95" y2="1026.24"/><line class="cls-1" x1="1663.27" y1="2202.45" x2="3716.65" y2="1016.83"/><line class="cls-1" x1="1646.97" y1="2193.04" x2="3700.36" y2="1007.42"/><line class="cls-1" x1="1630.67" y1="2183.63" x2="3684.06" y2="998.01"/><line class="cls-1" x1="1614.38" y1="2174.22" x2="3667.76" y2="988.6"/><line class="cls-1" x1="1598.08" y1="2164.81" x2="3651.47" y2="979.19"/><line class="cls-1" x1="1581.78" y1="2155.4" x2="3635.17" y2="969.78"/><line class="cls-1" x1="1565.48" y1="2145.99" x2="3618.87" y2="960.37"/><line class="cls-1" x1="1549.19" y1="2136.59" x2="3602.57" y2="950.96"/><line class="cls-1" x1="1532.89" y1="2127.18" x2="3586.28" y2="941.55"/><line class="cls-1" x1="1516.59" y1="2117.77" x2="3569.98" y2="932.14"/><line class="cls-1" x1="1500.3" y1="2108.36" x2="3553.68" y2="922.73"/><line class="cls-1" x1="1484" y1="2098.95" x2="3537.39" y2="913.32"/><line class="cls-1" x1="1467.7" y1="2089.54" x2="3521.09" y2="903.91"/><line class="cls-1" x1="1451.41" y1="2080.13" x2="3504.79" y2="894.5"/><line class="cls-1" x1="1435.11" y1="2070.72" x2="3488.5" y2="885.09"/><line class="cls-1" x1="1418.81" y1="2061.31" x2="3472.2" y2="875.68"/><line class="cls-1" x1="1402.52" y1="2051.9" x2="3455.9" y2="866.27"/><line class="cls-1" x1="1386.22" y1="2042.49" x2="3439.61" y2="856.86"/><line class="cls-1" x1="1369.92" y1="2033.08" x2="3423.31" y2="847.45"/><line class="cls-1" x1="1353.63" y1="2023.67" x2="3407.01" y2="838.04"/><line class="cls-1" x1="1337.33" y1="2014.26" x2="3390.72" y2="828.63"/><line class="cls-1" x1="1321.03" y1="2004.85" x2="3374.42" y2="819.22"/><line class="cls-1" x1="1304.74" y1="1995.44" x2="3358.12" y2="809.81"/><line class="cls-1" x1="1288.44" y1="1986.03" x2="3341.83" y2="800.4"/><line class="cls-1" x1="1272.14" y1="1976.62" x2="3325.53" y2="790.99"/><line class="cls-1" x1="1255.85" y1="1967.21" x2="3309.23" y2="781.58"/><line class="cls-1" x1="1239.55" y1="1957.8" x2="3292.94" y2="772.17"/><line class="cls-1" x1="1223.25" y1="1948.39" x2="3276.64" y2="762.77"/><line class="cls-1" x1="1206.96" y1="1938.98" x2="3260.34" y2="753.36"/><line class="cls-1" x1="1190.66" y1="1929.57" x2="3244.05" y2="743.95"/><line class="cls-1" x1="1174.36" y1="1920.16" x2="3227.75" y2="734.54"/><line class="cls-1" x1="1158.07" y1="1910.75" x2="3211.45" y2="725.13"/><line class="cls-1" x1="1141.77" y1="1901.34" x2="3195.16" y2="715.72"/><line class="cls-1" x1="1125.47" y1="1891.93" x2="3178.86" y2="706.31"/><line class="cls-1" x1="1109.18" y1="1882.52" x2="3162.56" y2="696.9"/><line class="cls-1" x1="1092.88" y1="1873.11" x2="3146.27" y2="687.49"/><line class="cls-1" x1="1076.58" y1="1863.7" x2="3129.97" y2="678.08"/><line class="cls-1" x1="1060.29" y1="1854.29" x2="3113.67" y2="668.67"/><line class="cls-1" x1="1043.99" y1="1844.88" x2="3097.38" y2="659.26"/><line class="cls-1" x1="1027.69" y1="1835.47" x2="3081.08" y2="649.85"/><line class="cls-1" x1="1011.4" y1="1826.06" x2="3064.78" y2="640.44"/><line class="cls-1" x1="995.1" y1="1816.65" x2="3048.49" y2="631.03"/><line class="cls-1" x1="978.8" y1="1807.24" x2="3032.19" y2="621.62"/><line class="cls-1" x1="962.51" y1="1797.83" x2="3015.89" y2="612.21"/><line class="cls-1" x1="946.21" y1="1788.43" x2="2999.6" y2="602.8"/><line class="cls-1" x1="929.91" y1="1779.02" x2="2983.3" y2="593.39"/><line class="cls-1" x1="913.62" y1="1769.61" x2="2967" y2="583.98"/><line class="cls-1" x1="897.32" y1="1760.2" x2="2950.71" y2="574.57"/><line class="cls-1" x1="881.02" y1="1750.79" x2="2934.41" y2="565.16"/><line class="cls-1" x1="864.73" y1="1741.38" x2="2918.11" y2="555.75"/><line class="cls-1" x1="848.43" y1="1731.97" x2="2901.82" y2="546.34"/><line class="cls-1" x1="832.13" y1="1722.56" x2="2885.52" y2="536.93"/><line class="cls-1" x1="815.84" y1="1713.15" x2="2869.22" y2="527.52"/><line class="cls-1" x1="799.54" y1="1703.74" x2="2852.93" y2="518.11"/><line class="cls-1" x1="783.24" y1="1694.33" x2="2836.63" y2="508.7"/><line class="cls-1" x1="766.95" y1="1684.92" x2="2820.33" y2="499.29"/><line class="cls-1" x1="750.65" y1="1675.51" x2="2804.04" y2="489.88"/><line class="cls-1" x1="734.35" y1="1666.1" x2="2787.74" y2="480.47"/><line class="cls-1" x1="718.06" y1="1656.69" x2="2771.44" y2="471.06"/><line class="cls-1" x1="701.76" y1="1647.28" x2="2755.15" y2="461.65"/><line class="cls-1" x1="685.46" y1="1637.87" x2="2738.85" y2="452.24"/><line class="cls-1" x1="669.17" y1="1628.46" x2="2722.55" y2="442.83"/><line class="cls-1" x1="652.87" y1="1619.05" x2="2706.26" y2="433.42"/><line class="cls-1" x1="636.57" y1="1609.64" x2="2689.96" y2="424.02"/><line class="cls-1" x1="620.28" y1="1600.23" x2="2673.66" y2="414.61"/><line class="cls-1" x1="603.98" y1="1590.82" x2="2657.37" y2="405.2"/><line class="cls-1" x1="587.68" y1="1581.41" x2="2641.07" y2="395.79"/><line class="cls-1" x1="571.39" y1="1572" x2="2624.77" y2="386.38"/><line class="cls-1" x1="555.09" y1="1562.59" x2="2608.47" y2="376.97"/><line class="cls-1" x1="538.79" y1="1553.18" x2="2592.18" y2="367.56"/><line class="cls-1" x1="522.49" y1="1543.77" x2="2575.88" y2="358.15"/><line class="cls-1" x1="506.2" y1="1534.36" x2="2559.58" y2="348.74"/><line class="cls-1" x1="489.9" y1="1524.95" x2="2543.29" y2="339.33"/><line class="cls-1" x1="473.6" y1="1515.54" x2="2526.99" y2="329.92"/><line class="cls-1" x1="457.31" y1="1506.13" x2="2510.69" y2="320.51"/><line class="cls-1" x1="441.01" y1="1496.72" x2="2494.4" y2="311.1"/><line class="cls-1" x1="424.71" y1="1487.31" x2="2478.1" y2="301.69"/><line class="cls-1" x1="408.42" y1="1477.9" x2="2461.8" y2="292.28"/><line class="cls-1" x1="392.12" y1="1468.49" x2="2445.51" y2="282.87"/><line class="cls-1" x1="375.82" y1="1459.08" x2="2429.21" y2="273.46"/><line class="cls-1" x1="359.53" y1="1449.68" x2="2412.91" y2="264.05"/><line class="cls-1" x1="343.23" y1="1440.27" x2="2396.62" y2="254.64"/><line class="cls-1" x1="326.93" y1="1430.86" x2="2380.32" y2="245.23"/><line class="cls-1" x1="310.64" y1="1421.45" x2="2364.02" y2="235.82"/><line class="cls-1" x1="294.34" y1="1412.04" x2="2347.73" y2="226.41"/><line class="cls-1" x1="278.04" y1="1402.63" x2="2331.43" y2="217"/><line class="cls-1" x1="261.75" y1="1393.22" x2="2315.13" y2="207.59"/><line class="cls-1" x1="245.45" y1="1383.81" x2="2298.84" y2="198.18"/><line class="cls-1" x1="229.15" y1="1374.4" x2="2282.54" y2="188.77"/><line class="cls-1" x1="212.86" y1="1364.99" x2="2266.24" y2="179.36"/><line class="cls-1" x1="196.56" y1="1355.58" x2="2249.95" y2="169.95"/><line class="cls-1" x1="180.26" y1="1346.17" x2="2233.65" y2="160.54"/><line class="cls-1" x1="163.97" y1="1336.76" x2="2217.35" y2="151.13"/><line class="cls-1" x1="147.67" y1="1327.35" x2="2201.06" y2="141.72"/><line class="cls-1" x1="131.37" y1="1317.94" x2="2184.76" y2="132.31"/><line class="cls-1" x1="115.08" y1="1308.53" x2="2168.46" y2="122.9"/><line class="cls-1" x1="98.78" y1="1299.12" x2="2152.17" y2="113.49"/><line class="cls-1" x1="82.48" y1="1289.71" x2="2135.87" y2="104.08"/><line class="cls-1" x1="66.19" y1="1280.3" x2="2119.57" y2="94.67"/><line class="cls-1" x1="49.89" y1="1270.89" x2="2103.28" y2="85.26"/><line class="cls-1" x1="33.59" y1="1261.48" x2="2086.98" y2="75.86"/><line class="cls-1" x1="17.3" y1="1252.07" x2="2070.68" y2="66.45"/><line class="cls-1" x1="2038.09" y1="66.45" x2="4091.48" y2="1252.07"/><line class="cls-1" x1="2021.79" y1="75.86" x2="4075.18" y2="1261.48"/><line class="cls-1" x1="2005.5" y1="85.26" x2="4058.88" y2="1270.89"/><line class="cls-1" x1="1989.2" y1="94.67" x2="4042.59" y2="1280.3"/><line class="cls-1" x1="1972.9" y1="104.08" x2="4026.29" y2="1289.71"/><line class="cls-1" x1="1956.61" y1="113.49" x2="4009.99" y2="1299.12"/><line class="cls-1" x1="1940.31" y1="122.9" x2="3993.7" y2="1308.53"/><line class="cls-1" x1="1924.01" y1="132.31" x2="3977.4" y2="1317.94"/><line class="cls-1" x1="1907.72" y1="141.72" x2="3961.1" y2="1327.35"/><line class="cls-1" x1="1891.42" y1="151.13" x2="3944.81" y2="1336.76"/><line class="cls-1" x1="1875.12" y1="160.54" x2="3928.51" y2="1346.17"/><line class="cls-1" x1="1858.83" y1="169.95" x2="3912.21" y2="1355.58"/><line class="cls-1" x1="1842.53" y1="179.36" x2="3895.92" y2="1364.99"/><line class="cls-1" x1="1826.23" y1="188.77" x2="3879.62" y2="1374.4"/><line class="cls-1" x1="1809.94" y1="198.18" x2="3863.32" y2="1383.81"/><line class="cls-1" x1="1793.64" y1="207.59" x2="3847.03" y2="1393.22"/><line class="cls-1" x1="1777.34" y1="217" x2="3830.73" y2="1402.63"/><line class="cls-1" x1="1761.05" y1="226.41" x2="3814.43" y2="1412.04"/><line class="cls-1" x1="1744.75" y1="235.82" x2="3798.14" y2="1421.45"/><line class="cls-1" x1="1728.45" y1="245.23" x2="3781.84" y2="1430.86"/><line class="cls-1" x1="1712.16" y1="254.64" x2="3765.54" y2="1440.27"/><line class="cls-1" x1="1695.86" y1="264.05" x2="3749.25" y2="1449.68"/><line class="cls-1" x1="1679.56" y1="273.46" x2="3732.95" y2="1459.08"/><line class="cls-1" x1="1663.27" y1="282.87" x2="3716.65" y2="1468.49"/><line class="cls-1" x1="1646.97" y1="292.28" x2="3700.36" y2="1477.9"/><line class="cls-1" x1="1630.67" y1="301.69" x2="3684.06" y2="1487.31"/><line class="cls-1" x1="1614.38" y1="311.1" x2="3667.76" y2="1496.72"/><line class="cls-1" x1="1598.08" y1="320.51" x2="3651.47" y2="1506.13"/><line class="cls-1" x1="1581.78" y1="329.92" x2="3635.17" y2="1515.54"/><line class="cls-1" x1="1565.48" y1="339.33" x2="3618.87" y2="1524.95"/><line class="cls-1" x1="1549.19" y1="348.74" x2="3602.57" y2="1534.36"/><line class="cls-1" x1="1532.89" y1="358.15" x2="3586.28" y2="1543.77"/><line class="cls-1" x1="1516.59" y1="367.56" x2="3569.98" y2="1553.18"/><line class="cls-1" x1="1500.3" y1="376.97" x2="3553.68" y2="1562.59"/><line class="cls-1" x1="1484" y1="386.38" x2="3537.39" y2="1572"/><line class="cls-1" x1="1467.7" y1="395.79" x2="3521.09" y2="1581.41"/><line class="cls-1" x1="1451.41" y1="405.2" x2="3504.79" y2="1590.82"/><line class="cls-1" x1="1435.11" y1="414.61" x2="3488.5" y2="1600.23"/><line class="cls-1" x1="1418.81" y1="424.02" x2="3472.2" y2="1609.64"/><line class="cls-1" x1="1402.52" y1="433.42" x2="3455.9" y2="1619.05"/><line class="cls-1" x1="1386.22" y1="442.83" x2="3439.61" y2="1628.46"/><line class="cls-1" x1="1369.92" y1="452.24" x2="3423.31" y2="1637.87"/><line class="cls-1" x1="1353.63" y1="461.65" x2="3407.01" y2="1647.28"/><line class="cls-1" x1="1337.33" y1="471.06" x2="3390.72" y2="1656.69"/><line class="cls-1" x1="1321.03" y1="480.47" x2="3374.42" y2="1666.1"/><line class="cls-1" x1="1304.74" y1="489.88" x2="3358.12" y2="1675.51"/><line class="cls-1" x1="1288.44" y1="499.29" x2="3341.83" y2="1684.92"/><line class="cls-1" x1="1272.14" y1="508.7" x2="3325.53" y2="1694.33"/><line class="cls-1" x1="1255.85" y1="518.11" x2="3309.23" y2="1703.74"/><line class="cls-1" x1="1239.55" y1="527.52" x2="3292.94" y2="1713.15"/><line class="cls-1" x1="1223.25" y1="536.93" x2="3276.64" y2="1722.56"/><line class="cls-1" x1="1206.96" y1="546.34" x2="3260.34" y2="1731.97"/><line class="cls-1" x1="1190.66" y1="555.75" x2="3244.05" y2="1741.38"/><line class="cls-1" x1="1174.36" y1="565.16" x2="3227.75" y2="1750.79"/><line class="cls-1" x1="1158.07" y1="574.57" x2="3211.45" y2="1760.2"/><line class="cls-1" x1="1141.77" y1="583.98" x2="3195.16" y2="1769.61"/><line class="cls-1" x1="1125.47" y1="593.39" x2="3178.86" y2="1779.02"/><line class="cls-1" x1="1109.18" y1="602.8" x2="3162.56" y2="1788.43"/><line class="cls-1" x1="1092.88" y1="612.21" x2="3146.27" y2="1797.83"/><line class="cls-1" x1="1076.58" y1="621.62" x2="3129.97" y2="1807.24"/><line class="cls-1" x1="1060.29" y1="631.03" x2="3113.67" y2="1816.65"/><line class="cls-1" x1="1043.99" y1="640.44" x2="3097.38" y2="1826.06"/><line class="cls-1" x1="1027.69" y1="649.85" x2="3081.08" y2="1835.47"/><line class="cls-1" x1="1011.4" y1="659.26" x2="3064.78" y2="1844.88"/><line class="cls-1" x1="995.1" y1="668.67" x2="3048.49" y2="1854.29"/><line class="cls-1" x1="978.8" y1="678.08" x2="3032.19" y2="1863.7"/><line class="cls-1" x1="962.51" y1="687.49" x2="3015.89" y2="1873.11"/><line class="cls-1" x1="946.21" y1="696.9" x2="2999.6" y2="1882.52"/><line class="cls-1" x1="929.91" y1="706.31" x2="2983.3" y2="1891.93"/><line class="cls-1" x1="913.62" y1="715.72" x2="2967" y2="1901.34"/><line class="cls-1" x1="897.32" y1="725.13" x2="2950.71" y2="1910.75"/><line class="cls-1" x1="881.02" y1="734.54" x2="2934.41" y2="1920.16"/><line class="cls-1" x1="864.73" y1="743.95" x2="2918.11" y2="1929.57"/><line class="cls-1" x1="848.43" y1="753.36" x2="2901.82" y2="1938.98"/><line class="cls-1" x1="832.13" y1="762.77" x2="2885.52" y2="1948.39"/><line class="cls-1" x1="815.84" y1="772.17" x2="2869.22" y2="1957.8"/><line class="cls-1" x1="799.54" y1="781.58" x2="2852.93" y2="1967.21"/><line class="cls-1" x1="783.24" y1="790.99" x2="2836.63" y2="1976.62"/><line class="cls-1" x1="766.95" y1="800.4" x2="2820.33" y2="1986.03"/><line class="cls-1" x1="750.65" y1="809.81" x2="2804.04" y2="1995.44"/><line class="cls-1" x1="734.35" y1="819.22" x2="2787.74" y2="2004.85"/><line class="cls-1" x1="718.06" y1="828.63" x2="2771.44" y2="2014.26"/><line class="cls-1" x1="701.76" y1="838.04" x2="2755.15" y2="2023.67"/><line class="cls-1" x1="685.46" y1="847.45" x2="2738.85" y2="2033.08"/><line class="cls-1" x1="669.17" y1="856.86" x2="2722.55" y2="2042.49"/><line class="cls-1" x1="652.87" y1="866.27" x2="2706.26" y2="2051.9"/><line class="cls-1" x1="636.57" y1="875.68" x2="2689.96" y2="2061.31"/><line class="cls-1" x1="620.28" y1="885.09" x2="2673.66" y2="2070.72"/><line class="cls-1" x1="603.98" y1="894.5" x2="2657.37" y2="2080.13"/><line class="cls-1" x1="587.68" y1="903.91" x2="2641.07" y2="2089.54"/><line class="cls-1" x1="571.39" y1="913.32" x2="2624.77" y2="2098.95"/><line class="cls-1" x1="555.09" y1="922.73" x2="2608.47" y2="2108.36"/><line class="cls-1" x1="538.79" y1="932.14" x2="2592.18" y2="2117.77"/><line class="cls-1" x1="522.49" y1="941.55" x2="2575.88" y2="2127.18"/><line class="cls-1" x1="506.2" y1="950.96" x2="2559.58" y2="2136.59"/><line class="cls-1" x1="489.9" y1="960.37" x2="2543.29" y2="2145.99"/><line class="cls-1" x1="473.6" y1="969.78" x2="2526.99" y2="2155.4"/><line class="cls-1" x1="457.31" y1="979.19" x2="2510.69" y2="2164.81"/><line class="cls-1" x1="441.01" y1="988.6" x2="2494.4" y2="2174.22"/><line class="cls-1" x1="424.71" y1="998.01" x2="2478.1" y2="2183.63"/><line class="cls-1" x1="408.42" y1="1007.42" x2="2461.8" y2="2193.04"/><line class="cls-1" x1="392.12" y1="1016.83" x2="2445.51" y2="2202.45"/><line class="cls-1" x1="375.82" y1="1026.24" x2="2429.21" y2="2211.86"/><line class="cls-1" x1="359.53" y1="1035.65" x2="2412.91" y2="2221.27"/><line class="cls-1" x1="343.23" y1="1045.06" x2="2396.62" y2="2230.68"/><line class="cls-1" x1="326.93" y1="1054.47" x2="2380.32" y2="2240.09"/><line class="cls-1" x1="310.64" y1="1063.88" x2="2364.02" y2="2249.5"/><line class="cls-1" x1="294.34" y1="1073.29" x2="2347.73" y2="2258.91"/><line class="cls-1" x1="278.04" y1="1082.7" x2="2331.43" y2="2268.32"/><line class="cls-1" x1="261.75" y1="1092.11" x2="2315.13" y2="2277.73"/><line class="cls-1" x1="245.45" y1="1101.52" x2="2298.84" y2="2287.14"/><line class="cls-1" x1="229.15" y1="1110.92" x2="2282.54" y2="2296.55"/><line class="cls-1" x1="212.86" y1="1120.33" x2="2266.24" y2="2305.96"/><line class="cls-1" x1="196.56" y1="1129.74" x2="2249.95" y2="2315.37"/><line class="cls-1" x1="180.26" y1="1139.15" x2="2233.65" y2="2324.78"/><line class="cls-1" x1="163.97" y1="1148.56" x2="2217.35" y2="2334.19"/><line class="cls-1" x1="147.67" y1="1157.97" x2="2201.06" y2="2343.6"/><line class="cls-1" x1="131.37" y1="1167.38" x2="2184.76" y2="2353.01"/><line class="cls-1" x1="115.08" y1="1176.79" x2="2168.46" y2="2362.42"/><line class="cls-1" x1="98.78" y1="1186.2" x2="2152.17" y2="2371.83"/><line class="cls-1" x1="82.48" y1="1195.61" x2="2135.87" y2="2381.24"/><line class="cls-1" x1="66.19" y1="1205.02" x2="2119.57" y2="2390.65"/><line class="cls-1" x1="49.89" y1="1214.43" x2="2103.28" y2="2400.06"/><line class="cls-1" x1="33.59" y1="1223.84" x2="2086.98" y2="2409.47"/><line class="cls-1" x1="17.3" y1="1233.25" x2="2070.68" y2="2418.88"/><polygon class="cls-2" points="1 1186.2 2054.39 0.58 4107.77 1186.2 2054.39 2371.83 1 1186.2"/><line class="cls-2" x1="2038.09" y1="2362.42" x2="4091.48" y2="1176.79"/><line class="cls-2" x1="2021.79" y1="2353.01" x2="4075.18" y2="1167.38"/><line class="cls-2" x1="2005.5" y1="2343.6" x2="4058.88" y2="1157.97"/><line class="cls-2" x1="1989.2" y1="2334.19" x2="4042.59" y2="1148.56"/><line class="cls-2" x1="1972.9" y1="2324.78" x2="4026.29" y2="1139.15"/><line class="cls-2" x1="1956.61" y1="2315.37" x2="4009.99" y2="1129.74"/><line class="cls-2" x1="1940.31" y1="2305.96" x2="3993.7" y2="1120.33"/><line class="cls-2" x1="1924.01" y1="2296.55" x2="3977.4" y2="1110.92"/><line class="cls-2" x1="1907.72" y1="2287.14" x2="3961.1" y2="1101.52"/><line class="cls-2" x1="1891.42" y1="2277.73" x2="3944.81" y2="1092.11"/><line class="cls-2" x1="1875.12" y1="2268.32" x2="3928.51" y2="1082.7"/><line class="cls-2" x1="1858.83" y1="2258.91" x2="3912.21" y2="1073.29"/><line class="cls-2" x1="1842.53" y1="2249.5" x2="3895.92" y2="1063.88"/><line class="cls-2" x1="1826.23" y1="2240.09" x2="3879.62" y2="1054.47"/><line class="cls-2" x1="1809.94" y1="2230.68" x2="3863.32" y2="1045.06"/><line class="cls-2" x1="1793.64" y1="2221.27" x2="3847.03" y2="1035.65"/><line class="cls-2" x1="1777.34" y1="2211.86" x2="3830.73" y2="1026.24"/><line class="cls-2" x1="1761.05" y1="2202.45" x2="3814.43" y2="1016.83"/><line class="cls-2" x1="1744.75" y1="2193.04" x2="3798.14" y2="1007.42"/><line class="cls-2" x1="1728.45" y1="2183.63" x2="3781.84" y2="998.01"/><line class="cls-2" x1="1712.16" y1="2174.22" x2="3765.54" y2="988.6"/><line class="cls-2" x1="1695.86" y1="2164.81" x2="3749.25" y2="979.19"/><line class="cls-2" x1="1679.56" y1="2155.4" x2="3732.95" y2="969.78"/><line class="cls-2" x1="1663.27" y1="2145.99" x2="3716.65" y2="960.37"/><line class="cls-2" x1="1646.97" y1="2136.59" x2="3700.36" y2="950.96"/><line class="cls-2" x1="1630.67" y1="2127.18" x2="3684.06" y2="941.55"/><line class="cls-2" x1="1614.38" y1="2117.77" x2="3667.76" y2="932.14"/><line class="cls-2" x1="1598.08" y1="2108.36" x2="3651.47" y2="922.73"/><line class="cls-2" x1="1581.78" y1="2098.95" x2="3635.17" y2="913.32"/><line class="cls-2" x1="1565.48" y1="2089.54" x2="3618.87" y2="903.91"/><line class="cls-2" x1="1549.19" y1="2080.13" x2="3602.57" y2="894.5"/><line class="cls-2" x1="1532.89" y1="2070.72" x2="3586.28" y2="885.09"/><line class="cls-2" x1="1516.59" y1="2061.31" x2="3569.98" y2="875.68"/><line class="cls-2" x1="1500.3" y1="2051.9" x2="3553.68" y2="866.27"/><line class="cls-2" x1="1484" y1="2042.49" x2="3537.39" y2="856.86"/><line class="cls-2" x1="1467.7" y1="2033.08" x2="3521.09" y2="847.45"/><line class="cls-2" x1="1451.41" y1="2023.67" x2="3504.79" y2="838.04"/><line class="cls-2" x1="1435.11" y1="2014.26" x2="3488.5" y2="828.63"/><line class="cls-2" x1="1418.81" y1="2004.85" x2="3472.2" y2="819.22"/><line class="cls-2" x1="1402.52" y1="1995.44" x2="3455.9" y2="809.81"/><line class="cls-2" x1="1386.22" y1="1986.03" x2="3439.61" y2="800.4"/><line class="cls-2" x1="1369.92" y1="1976.62" x2="3423.31" y2="790.99"/><line class="cls-2" x1="1353.63" y1="1967.21" x2="3407.01" y2="781.58"/><line class="cls-2" x1="1337.33" y1="1957.8" x2="3390.72" y2="772.17"/><line class="cls-2" x1="1321.03" y1="1948.39" x2="3374.42" y2="762.77"/><line class="cls-2" x1="1304.74" y1="1938.98" x2="3358.12" y2="753.36"/><line class="cls-2" x1="1288.44" y1="1929.57" x2="3341.83" y2="743.95"/><line class="cls-2" x1="1272.14" y1="1920.16" x2="3325.53" y2="734.54"/><line class="cls-2" x1="1255.85" y1="1910.75" x2="3309.23" y2="725.13"/><line class="cls-2" x1="1239.55" y1="1901.34" x2="3292.94" y2="715.72"/><line class="cls-2" x1="1223.25" y1="1891.93" x2="3276.64" y2="706.31"/><line class="cls-2" x1="1206.96" y1="1882.52" x2="3260.34" y2="696.9"/><line class="cls-2" x1="1190.66" y1="1873.11" x2="3244.05" y2="687.49"/><line class="cls-2" x1="1174.36" y1="1863.7" x2="3227.75" y2="678.08"/><line class="cls-2" x1="1158.07" y1="1854.29" x2="3211.45" y2="668.67"/><line class="cls-2" x1="1141.77" y1="1844.88" x2="3195.16" y2="659.26"/><line class="cls-2" x1="1125.47" y1="1835.47" x2="3178.86" y2="649.85"/><line class="cls-2" x1="1109.18" y1="1826.06" x2="3162.56" y2="640.44"/><line class="cls-2" x1="1092.88" y1="1816.65" x2="3146.27" y2="631.03"/><line class="cls-2" x1="1076.58" y1="1807.24" x2="3129.97" y2="621.62"/><line class="cls-2" x1="1060.29" y1="1797.83" x2="3113.67" y2="612.21"/><line class="cls-2" x1="1043.99" y1="1788.43" x2="3097.38" y2="602.8"/><line class="cls-2" x1="1027.69" y1="1779.02" x2="3081.08" y2="593.39"/><line class="cls-2" x1="1011.4" y1="1769.61" x2="3064.78" y2="583.98"/><line class="cls-2" x1="995.1" y1="1760.2" x2="3048.49" y2="574.57"/><line class="cls-2" x1="978.8" y1="1750.79" x2="3032.19" y2="565.16"/><line class="cls-2" x1="962.51" y1="1741.38" x2="3015.89" y2="555.75"/><line class="cls-2" x1="946.21" y1="1731.97" x2="2999.6" y2="546.34"/><line class="cls-2" x1="929.91" y1="1722.56" x2="2983.3" y2="536.93"/><line class="cls-2" x1="913.62" y1="1713.15" x2="2967" y2="527.52"/><line class="cls-2" x1="897.32" y1="1703.74" x2="2950.71" y2="518.11"/><line class="cls-2" x1="881.02" y1="1694.33" x2="2934.41" y2="508.7"/><line class="cls-2" x1="864.73" y1="1684.92" x2="2918.11" y2="499.29"/><line class="cls-2" x1="848.43" y1="1675.51" x2="2901.82" y2="489.88"/><line class="cls-2" x1="832.13" y1="1666.1" x2="2885.52" y2="480.47"/><line class="cls-2" x1="815.84" y1="1656.69" x2="2869.22" y2="471.06"/><line class="cls-2" x1="799.54" y1="1647.28" x2="2852.93" y2="461.65"/><line class="cls-2" x1="783.24" y1="1637.87" x2="2836.63" y2="452.24"/><line class="cls-2" x1="766.95" y1="1628.46" x2="2820.33" y2="442.83"/><line class="cls-2" x1="750.65" y1="1619.05" x2="2804.04" y2="433.42"/><line class="cls-2" x1="734.35" y1="1609.64" x2="2787.74" y2="424.02"/><line class="cls-2" x1="718.06" y1="1600.23" x2="2771.44" y2="414.61"/><line class="cls-2" x1="701.76" y1="1590.82" x2="2755.15" y2="405.2"/><line class="cls-2" x1="685.46" y1="1581.41" x2="2738.85" y2="395.79"/><line class="cls-2" x1="669.17" y1="1572" x2="2722.55" y2="386.38"/><line class="cls-2" x1="652.87" y1="1562.59" x2="2706.26" y2="376.97"/><line class="cls-2" x1="636.57" y1="1553.18" x2="2689.96" y2="367.56"/><line class="cls-2" x1="620.28" y1="1543.77" x2="2673.66" y2="358.15"/><line class="cls-2" x1="603.98" y1="1534.36" x2="2657.37" y2="348.74"/><line class="cls-2" x1="587.68" y1="1524.95" x2="2641.07" y2="339.33"/><line class="cls-2" x1="571.39" y1="1515.54" x2="2624.77" y2="329.92"/><line class="cls-2" x1="555.09" y1="1506.13" x2="2608.47" y2="320.51"/><line class="cls-2" x1="538.79" y1="1496.72" x2="2592.18" y2="311.1"/><line class="cls-2" x1="522.49" y1="1487.31" x2="2575.88" y2="301.69"/><line class="cls-2" x1="506.2" y1="1477.9" x2="2559.58" y2="292.28"/><line class="cls-2" x1="489.9" y1="1468.49" x2="2543.29" y2="282.87"/><line class="cls-2" x1="473.6" y1="1459.08" x2="2526.99" y2="273.46"/><line class="cls-2" x1="457.31" y1="1449.68" x2="2510.69" y2="264.05"/><line class="cls-2" x1="441.01" y1="1440.27" x2="2494.4" y2="254.64"/><line class="cls-2" x1="424.71" y1="1430.86" x2="2478.1" y2="245.23"/><line class="cls-2" x1="408.42" y1="1421.45" x2="2461.8" y2="235.82"/><line class="cls-2" x1="392.12" y1="1412.04" x2="2445.51" y2="226.41"/><line class="cls-2" x1="375.82" y1="1402.63" x2="2429.21" y2="217"/><line class="cls-2" x1="359.53" y1="1393.22" x2="2412.91" y2="207.59"/><line class="cls-2" x1="343.23" y1="1383.81" x2="2396.62" y2="198.18"/><line class="cls-2" x1="326.93" y1="1374.4" x2="2380.32" y2="188.77"/><line class="cls-2" x1="310.64" y1="1364.99" x2="2364.02" y2="179.36"/><line class="cls-2" x1="294.34" y1="1355.58" x2="2347.73" y2="169.95"/><line class="cls-2" x1="278.04" y1="1346.17" x2="2331.43" y2="160.54"/><line class="cls-2" x1="261.75" y1="1336.76" x2="2315.13" y2="151.13"/><line class="cls-2" x1="245.45" y1="1327.35" x2="2298.84" y2="141.72"/><line class="cls-2" x1="229.15" y1="1317.94" x2="2282.54" y2="132.31"/><line class="cls-2" x1="212.86" y1="1308.53" x2="2266.24" y2="122.9"/><line class="cls-2" x1="196.56" y1="1299.12" x2="2249.95" y2="113.49"/><line class="cls-2" x1="180.26" y1="1289.71" x2="2233.65" y2="104.08"/><line class="cls-2" x1="163.97" y1="1280.3" x2="2217.35" y2="94.67"/><line class="cls-2" x1="147.67" y1="1270.89" x2="2201.06" y2="85.26"/><line class="cls-2" x1="131.37" y1="1261.48" x2="2184.76" y2="75.86"/><line class="cls-2" x1="115.08" y1="1252.07" x2="2168.46" y2="66.45"/><line class="cls-2" x1="98.78" y1="1242.66" x2="2152.17" y2="57.04"/><line class="cls-2" x1="82.48" y1="1233.25" x2="2135.87" y2="47.63"/><line class="cls-2" x1="66.19" y1="1223.84" x2="2119.57" y2="38.22"/><line class="cls-2" x1="49.89" y1="1214.43" x2="2103.28" y2="28.81"/><line class="cls-2" x1="33.59" y1="1205.02" x2="2086.98" y2="19.4"/><line class="cls-2" x1="17.3" y1="1195.61" x2="2070.68" y2="9.99"/><line class="cls-2" x1="2038.09" y1="9.99" x2="4091.48" y2="1195.61"/><line class="cls-2" x1="2021.79" y1="19.4" x2="4075.18" y2="1205.02"/><line class="cls-2" x1="2005.5" y1="28.81" x2="4058.88" y2="1214.43"/><line class="cls-2" x1="1989.2" y1="38.22" x2="4042.59" y2="1223.84"/><line class="cls-2" x1="1972.9" y1="47.63" x2="4026.29" y2="1233.25"/><line class="cls-2" x1="1956.61" y1="57.04" x2="4009.99" y2="1242.66"/><line class="cls-2" x1="1940.31" y1="66.45" x2="3993.7" y2="1252.07"/><line class="cls-2" x1="1924.01" y1="75.86" x2="3977.4" y2="1261.48"/><line class="cls-2" x1="1907.72" y1="85.26" x2="3961.1" y2="1270.89"/><line class="cls-2" x1="1891.42" y1="94.67" x2="3944.81" y2="1280.3"/><line class="cls-2" x1="1875.12" y1="104.08" x2="3928.51" y2="1289.71"/><line class="cls-2" x1="1858.83" y1="113.49" x2="3912.21" y2="1299.12"/><line class="cls-2" x1="1842.53" y1="122.9" x2="3895.92" y2="1308.53"/><line class="cls-2" x1="1826.23" y1="132.31" x2="3879.62" y2="1317.94"/><line class="cls-2" x1="1809.94" y1="141.72" x2="3863.32" y2="1327.35"/><line class="cls-2" x1="1793.64" y1="151.13" x2="3847.03" y2="1336.76"/><line class="cls-2" x1="1777.34" y1="160.54" x2="3830.73" y2="1346.17"/><line class="cls-2" x1="1761.05" y1="169.95" x2="3814.43" y2="1355.58"/><line class="cls-2" x1="1744.75" y1="179.36" x2="3798.14" y2="1364.99"/><line class="cls-2" x1="1728.45" y1="188.77" x2="3781.84" y2="1374.4"/><line class="cls-2" x1="1712.16" y1="198.18" x2="3765.54" y2="1383.81"/><line class="cls-2" x1="1695.86" y1="207.59" x2="3749.25" y2="1393.22"/><line class="cls-2" x1="1679.56" y1="217" x2="3732.95" y2="1402.63"/><line class="cls-2" x1="1663.27" y1="226.41" x2="3716.65" y2="1412.04"/><line class="cls-2" x1="1646.97" y1="235.82" x2="3700.36" y2="1421.45"/><line class="cls-2" x1="1630.67" y1="245.23" x2="3684.06" y2="1430.86"/><line class="cls-2" x1="1614.38" y1="254.64" x2="3667.76" y2="1440.27"/><line class="cls-2" x1="1598.08" y1="264.05" x2="3651.47" y2="1449.68"/><line class="cls-2" x1="1581.78" y1="273.46" x2="3635.17" y2="1459.08"/><line class="cls-2" x1="1565.48" y1="282.87" x2="3618.87" y2="1468.49"/><line class="cls-2" x1="1549.19" y1="292.28" x2="3602.57" y2="1477.9"/><line class="cls-2" x1="1532.89" y1="301.69" x2="3586.28" y2="1487.31"/><line class="cls-2" x1="1516.59" y1="311.1" x2="3569.98" y2="1496.72"/><line class="cls-2" x1="1500.3" y1="320.51" x2="3553.68" y2="1506.13"/><line class="cls-2" x1="1484" y1="329.92" x2="3537.39" y2="1515.54"/><line class="cls-2" x1="1467.7" y1="339.33" x2="3521.09" y2="1524.95"/><line class="cls-2" x1="1451.41" y1="348.74" x2="3504.79" y2="1534.36"/><line class="cls-2" x1="1435.11" y1="358.15" x2="3488.5" y2="1543.77"/><line class="cls-2" x1="1418.81" y1="367.56" x2="3472.2" y2="1553.18"/><line class="cls-2" x1="1402.52" y1="376.97" x2="3455.9" y2="1562.59"/><line class="cls-2" x1="1386.22" y1="386.38" x2="3439.61" y2="1572"/><line class="cls-2" x1="1369.92" y1="395.79" x2="3423.31" y2="1581.41"/><line class="cls-2" x1="1353.63" y1="405.2" x2="3407.01" y2="1590.82"/><line class="cls-2" x1="1337.33" y1="414.61" x2="3390.72" y2="1600.23"/><line class="cls-2" x1="1321.03" y1="424.02" x2="3374.42" y2="1609.64"/><line class="cls-2" x1="1304.74" y1="433.42" x2="3358.12" y2="1619.05"/><line class="cls-2" x1="1288.44" y1="442.83" x2="3341.83" y2="1628.46"/><line class="cls-2" x1="1272.14" y1="452.24" x2="3325.53" y2="1637.87"/><line class="cls-2" x1="1255.85" y1="461.65" x2="3309.23" y2="1647.28"/><line class="cls-2" x1="1239.55" y1="471.06" x2="3292.94" y2="1656.69"/><line class="cls-2" x1="1223.25" y1="480.47" x2="3276.64" y2="1666.1"/><line class="cls-2" x1="1206.96" y1="489.88" x2="3260.34" y2="1675.51"/><line class="cls-2" x1="1190.66" y1="499.29" x2="3244.05" y2="1684.92"/><line class="cls-2" x1="1174.36" y1="508.7" x2="3227.75" y2="1694.33"/><line class="cls-2" x1="1158.07" y1="518.11" x2="3211.45" y2="1703.74"/><line class="cls-2" x1="1141.77" y1="527.52" x2="3195.16" y2="1713.15"/><line class="cls-2" x1="1125.47" y1="536.93" x2="3178.86" y2="1722.56"/><line class="cls-2" x1="1109.18" y1="546.34" x2="3162.56" y2="1731.97"/><line class="cls-2" x1="1092.88" y1="555.75" x2="3146.27" y2="1741.38"/><line class="cls-2" x1="1076.58" y1="565.16" x2="3129.97" y2="1750.79"/><line class="cls-2" x1="1060.29" y1="574.57" x2="3113.67" y2="1760.2"/><line class="cls-2" x1="1043.99" y1="583.98" x2="3097.38" y2="1769.61"/><line class="cls-2" x1="1027.69" y1="593.39" x2="3081.08" y2="1779.02"/><line class="cls-2" x1="1011.4" y1="602.8" x2="3064.78" y2="1788.43"/><line class="cls-2" x1="995.1" y1="612.21" x2="3048.49" y2="1797.83"/><line class="cls-2" x1="978.8" y1="621.62" x2="3032.19" y2="1807.24"/><line class="cls-2" x1="962.51" y1="631.03" x2="3015.89" y2="1816.65"/><line class="cls-2" x1="946.21" y1="640.44" x2="2999.6" y2="1826.06"/><line class="cls-2" x1="929.91" y1="649.85" x2="2983.3" y2="1835.47"/><line class="cls-2" x1="913.62" y1="659.26" x2="2967" y2="1844.88"/><line class="cls-2" x1="897.32" y1="668.67" x2="2950.71" y2="1854.29"/><line class="cls-2" x1="881.02" y1="678.08" x2="2934.41" y2="1863.7"/><line class="cls-2" x1="864.73" y1="687.49" x2="2918.11" y2="1873.11"/><line class="cls-2" x1="848.43" y1="696.9" x2="2901.82" y2="1882.52"/><line class="cls-2" x1="832.13" y1="706.31" x2="2885.52" y2="1891.93"/><line class="cls-2" x1="815.84" y1="715.72" x2="2869.22" y2="1901.34"/><line class="cls-2" x1="799.54" y1="725.13" x2="2852.93" y2="1910.75"/><line class="cls-2" x1="783.24" y1="734.54" x2="2836.63" y2="1920.16"/><line class="cls-2" x1="766.95" y1="743.95" x2="2820.33" y2="1929.57"/><line class="cls-2" x1="750.65" y1="753.36" x2="2804.04" y2="1938.98"/><line class="cls-2" x1="734.35" y1="762.77" x2="2787.74" y2="1948.39"/><line class="cls-2" x1="718.06" y1="772.17" x2="2771.44" y2="1957.8"/><line class="cls-2" x1="701.76" y1="781.58" x2="2755.15" y2="1967.21"/><line class="cls-2" x1="685.46" y1="790.99" x2="2738.85" y2="1976.62"/><line class="cls-2" x1="669.17" y1="800.4" x2="2722.55" y2="1986.03"/><line class="cls-2" x1="652.87" y1="809.81" x2="2706.26" y2="1995.44"/><line class="cls-2" x1="636.57" y1="819.22" x2="2689.96" y2="2004.85"/><line class="cls-2" x1="620.28" y1="828.63" x2="2673.66" y2="2014.26"/><line class="cls-2" x1="603.98" y1="838.04" x2="2657.37" y2="2023.67"/><line class="cls-2" x1="587.68" y1="847.45" x2="2641.07" y2="2033.08"/><line class="cls-2" x1="571.39" y1="856.86" x2="2624.77" y2="2042.49"/><line class="cls-2" x1="555.09" y1="866.27" x2="2608.47" y2="2051.9"/><line class="cls-2" x1="538.79" y1="875.68" x2="2592.18" y2="2061.31"/><line class="cls-2" x1="522.49" y1="885.09" x2="2575.88" y2="2070.72"/><line class="cls-2" x1="506.2" y1="894.5" x2="2559.58" y2="2080.13"/><line class="cls-2" x1="489.9" y1="903.91" x2="2543.29" y2="2089.54"/><line class="cls-2" x1="473.6" y1="913.32" x2="2526.99" y2="2098.95"/><line class="cls-2" x1="457.31" y1="922.73" x2="2510.69" y2="2108.36"/><line class="cls-2" x1="441.01" y1="932.14" x2="2494.4" y2="2117.77"/><line class="cls-2" x1="424.71" y1="941.55" x2="2478.1" y2="2127.18"/><line class="cls-2" x1="408.42" y1="950.96" x2="2461.8" y2="2136.59"/><line class="cls-2" x1="392.12" y1="960.37" x2="2445.51" y2="2145.99"/><line class="cls-2" x1="375.82" y1="969.78" x2="2429.21" y2="2155.4"/><line class="cls-2" x1="359.53" y1="979.19" x2="2412.91" y2="2164.81"/><line class="cls-2" x1="343.23" y1="988.6" x2="2396.62" y2="2174.22"/><line class="cls-2" x1="326.93" y1="998.01" x2="2380.32" y2="2183.63"/><line class="cls-2" x1="310.64" y1="1007.42" x2="2364.02" y2="2193.04"/><line class="cls-2" x1="294.34" y1="1016.83" x2="2347.73" y2="2202.45"/><line class="cls-2" x1="278.04" y1="1026.24" x2="2331.43" y2="2211.86"/><line class="cls-2" x1="261.75" y1="1035.65" x2="2315.13" y2="2221.27"/><line class="cls-2" x1="245.45" y1="1045.06" x2="2298.84" y2="2230.68"/><line class="cls-2" x1="229.15" y1="1054.47" x2="2282.54" y2="2240.09"/><line class="cls-2" x1="212.86" y1="1063.88" x2="2266.24" y2="2249.5"/><line class="cls-2" x1="196.56" y1="1073.29" x2="2249.95" y2="2258.91"/><line class="cls-2" x1="180.26" y1="1082.7" x2="2233.65" y2="2268.32"/><line class="cls-2" x1="163.97" y1="1092.11" x2="2217.35" y2="2277.73"/><line class="cls-2" x1="147.67" y1="1101.52" x2="2201.06" y2="2287.14"/><line class="cls-2" x1="131.37" y1="1110.92" x2="2184.76" y2="2296.55"/><line class="cls-2" x1="115.08" y1="1120.33" x2="2168.46" y2="2305.96"/><line class="cls-2" x1="98.78" y1="1129.74" x2="2152.17" y2="2315.37"/><line class="cls-2" x1="82.48" y1="1139.15" x2="2135.87" y2="2324.78"/><line class="cls-2" x1="66.19" y1="1148.56" x2="2119.57" y2="2334.19"/><line class="cls-2" x1="49.89" y1="1157.97" x2="2103.28" y2="2343.6"/><line class="cls-2" x1="33.59" y1="1167.38" x2="2086.98" y2="2353.01"/><line class="cls-2" x1="17.3" y1="1176.79" x2="2070.68" y2="2362.42"/><polygon class="cls-1" points="4107.77 1186.2 4107.77 1242.66 2054.39 2428.29 1 1242.66 1 1186.2 2054.39 2371.83 4107.77 1186.2"/></g></g></svg>